<svg xmlns="http://www.w3.org/2000/svg" xmlns:xlink="http://www.w3.org/1999/xlink" width="120" height="55" version="1.1"><rect id="backgroundrect" width="100%" height="100%" x="0" y="0" fill="none" stroke="none" class="" style=""/>
    <!-- Generator: Sketch 46.1 (44463) - http://www.bohemiancoding.com/sketch -->
    <title>Logo_Raet_Black</title>
    <desc>Created with Sketch.</desc>
    <defs/>
    
<g class="currentLayer" style=""><title>Layer 1</title><g id="Page-1" stroke="none" stroke-width="1" fill="none" fill-rule="evenodd" class="">
        <g id="Logo_Raet_Black" fill="#90a4ae">
            <path d="M50.7664884,48.329019 C47.209041,52.029121 43.423600699999994,54.498509999999996 36.470417100000006,54.498509999999996 C28.627023199999996,54.498509999999996 22.8163993,50.152004000000005 22.8163993,42.266797999999994 C22.8163993,33.816387000000006 29.9223102,29.621531000000004 39.7852977,29.621531000000004 C43.82727989999999,29.621531000000004 47.169711199999995,30.129619000000005 50.646303,31.014641999999995 L50.646303,23.478509599999995 C50.646303,16.959945200000007 46.6566275,14.6272807 40.513197899999994,14.6272807 C34.2877148,14.6272807 30.076434899999995,16.1859726 27.408199600000003,18.277629000000005 L25.811051699999993,18.277629000000005 L25.811051699999993,15.093375699999996 C29.20559,13.242727599999995 33.802980399999996,11.408199600000003 40.674310199999994,11.408199600000003 C49.242609599999994,11.408199600000003 55.03845990000001,14.546480200000005 55.03845990000001,23.237899499999997 L55.03845990000001,54.498509999999996 L53.7715223,54.498509999999996 C51.4269091,54.498509999999996 50.7664884,53.693889 50.7664884,50.315197 L50.7664884,48.329019 L50.7664884,48.329019 L50.7664884,48.329019 zM50.86111940000001,44.438857 C47.546438499999994,48.382355000000004 43.82727989999999,51.314257 37.034609599999996,51.314257 C31.2565276,51.314257 27.010310200000006,48.622766 27.010310200000006,41.945387 C27.010310200000006,35.508419 32.589147999999994,32.652343 40.02666670000001,32.652343 C44.0690481,32.652343 47.625497300000006,33.216353999999995 50.86111940000001,33.940374000000006 L50.86111940000001,44.438857 zM3.9928699000000023,19.110311199999998 C7.228092699999998,15.247811999999996 11.9001497,11.546515600000006 17.882467,11.546515600000006 C18.9333904,11.546515600000006 19.601397499999997,11.707121400000005 19.764705900000003,11.787921800000007 L19.764705900000003,15.087206199999997 C19.764705900000003,15.087206199999997 18.7726774,15.006405799999996 18.043579299999998,15.006405799999996 C11.9001497,15.006405799999996 7.387607799999998,18.948710399999996 3.9928699000000023,22.892408000000003 L3.9928699000000023,54.395618999999996 L0,54.395618999999996 L0,11.408199600000003 L1.8740535000000023,11.408199600000003 C3.654474200000003,11.408199600000003 3.9928699000000023,11.872702599999997 3.9928699000000023,15.975811899999997 L3.9928699000000023,19.110311199999998 zM80.024299,51.211365 C86.734916,51.211365 90.85895199999999,49.08667199999999 93.12231,46.833017 L95.072428,46.833017 L95.072428,49.766908 C92.08097000000001,52.100369 87.301105,54.395618999999996 79.62082,54.395618999999996 C66.928086,54.395618999999996 59.8930481,46.105813 59.8930481,33.069281000000004 C59.8930481,19.873536900000005 67.817897,11.408199600000003 78.569897,11.408199600000003 C88.91861700000001,11.408199600000003 95.871002,17.458280799999997 95.871002,31.139425000000003 C95.871002,31.944046 95.78994700000001,32.940518 95.78994700000001,33.100925000000004 L64.016884,33.100925000000004 C64.016884,44.852014 69.514068,51.211365 80.024299,51.211365 M64.09774,29.916672000000005 C65.068207,19.614418299999997 70.809554,14.592452899999998 78.569897,14.592452899999998 C86.412093,14.592452899999998 91.635166,18.729793 91.878132,29.916672000000005 L64.09774,29.916672000000005 zM103.77183600000001,11.940949700000004 L103.77183600000001,0 L107.76470599999999,0 L107.76470599999999,11.940949700000004 L119.743316,11.940949700000004 L119.743316,14.926187099999993 L107.76470599999999,14.926187099999993 L107.76470599999999,44.93598299999999 C107.76470599999999,50.012877 110.53855300000001,51.545100000000005 115.46894800000001,51.545100000000005 L119.743316,51.545100000000005 L119.743316,54.43401299999999 C118.449626,54.677609000000004 116.600528,54.928369 114.09480199999999,54.928369 C107.62815,54.928369 103.77183600000001,52.107916 103.77183600000001,45.419989 L103.80138299999999,14.926187099999993 L98.18181799999999,14.926187099999993 L98.18181799999999,11.940949700000004 L103.77183600000001,11.940949700000004 z" id="Raet"/>
        </g>
    </g></g></svg>